<?xml version="1.0" encoding="UTF-8" standalone="no"?>
<svg
   xmlns:dc="http://purl.org/dc/elements/1.1/"
   xmlns:cc="http://creativecommons.org/ns#"
   xmlns:rdf="http://www.w3.org/1999/02/22-rdf-syntax-ns#"
   xmlns:svg="http://www.w3.org/2000/svg"
   xmlns="http://www.w3.org/2000/svg"
   xmlns:sodipodi="http://sodipodi.sourceforge.net/DTD/sodipodi-0.dtd"
   xmlns:inkscape="http://www.inkscape.org/namespaces/inkscape"
   x="0px"
   y="0px"
   width="54.010044"
   height="54.009998"
   viewBox="0 0 108.02009 108.02"
   id="svg2"
   version="1.1"
   inkscape:version="0.91 r13725"
   sodipodi:docname="logo.svg">
  <metadata
     id="metadata27">
    <rdf:RDF>
      <cc:Work
         rdf:about="">
        <dc:format>image/svg+xml</dc:format>
        <dc:type
           rdf:resource="http://purl.org/dc/dcmitype/StillImage" />
        <dc:title />
      </cc:Work>
    </rdf:RDF>
  </metadata>
  <defs
     id="defs25" />
  <sodipodi:namedview
     pagecolor="#ffffff"
     bordercolor="#666666"
     borderopacity="1"
     objecttolerance="10"
     gridtolerance="10"
     guidetolerance="10"
     inkscape:pageopacity="0"
     inkscape:pageshadow="2"
     inkscape:window-width="1191"
     inkscape:window-height="778"
     id="namedview23"
     showgrid="false"
     fit-margin-top="0"
     fit-margin-left="0"
     fit-margin-right="0"
     fit-margin-bottom="0"
     inkscape:zoom="5.7308001"
     inkscape:cx="13.253337"
     inkscape:cy="17.596774"
     inkscape:window-x="73"
     inkscape:window-y="21"
     inkscape:window-maximized="0"
     inkscape:current-layer="svg2" />
  <linearGradient
     id="ix_gradient"
     gradientUnits="userSpaceOnUse"
     x1="252"
     y1="96"
     x2="251.25967"
     y2="4.2467742"
     gradientTransform="matrix(1,0,0,1.1741304,-197.97991,-4.696522)">
    <stop
       offset="0"
       style="stop-color:#21759B"
       id="stop5" />
    <stop
       offset="1"
       style="stop-color:#21759B"
       id="stop7" />
  </linearGradient>
  <path
     d="m 108.02009,97.52 c 0,3.6 -2.9,6.5 -6.4,6.5 l -95.2000011,0 c -3.5,0 -6.40000001,-2.9 -6.40000001,-6.5 l 0,-79 c 0,-3.6 2.90000001,-6.5 6.40000001,-6.5 l 95.2000011,0 c 3.5,0 6.4,2.9 6.4,6.5 l 0,79 z"
     id="path9"
     inkscape:connector-curvature="0"
     style="fill:#ff6633" />
  <path
     d="m 108.02009,100.38815 c 0,4.22687 -0.0782,1.69208 0,7.63185 l -108.00000111,0 c 0.20161,-3.1872 0,-3.40498 0,-7.63185 l 0,-92.7563022 c 0,-4.2268695 -0.0452,-4.5895244 0,-7.6318478 L 108.02009,0 c -0.0782,13.328274 0,3.4049783 0,7.6318478 z"
     id="path11"
     style="fill:url(#ix_gradient)"
     inkscape:connector-curvature="0"
     sodipodi:nodetypes="sccssccss" />
  <g
     id="g3355"
     transform="matrix(0.91425278,0,0,0.91425278,4.2622691,0.97756085)">
    <path
       style="fill:#f5f5f5"
       inkscape:connector-curvature="0"
       id="path13"
       d="m 18.820089,90.82 c -3.6,0 -6.4,-2.9 -6.4,-6.5 l 0,-51.9 c 0,-3.6 2.9,-6.5 6.4,-6.5 3.5,0 6.4,2.9 6.4,6.5 l 0,51.9 c 0.1,3.6 -2.8,6.5 -6.4,6.5 z" />
    <path
       style="fill:#f5f5f5"
       inkscape:connector-curvature="0"
       id="path15"
       d="m 76.020089,57.62 18.8,-21.6 c 2.3,-2.7 2.1,-6.8 -0.6,-9.2 -2.7,-2.4 -6.7,-2.1 -9.1,0.6 l -17.7,20.4 -17.7,-20.4 c -2.3,-2.7 -6.4,-3 -9.1,-0.6 -2.7,2.4 -2.9,6.5 -0.6,9.2 l 18.8,21.7 -18.8,21.6 c -2.3,2.7 -2.1,6.8 0.6,9.2 1.2,1.1 2.7,1.6 4.2,1.6 1.8,0 3.6,-0.7 4.9,-2.2 l 17.7,-20.4 17.7,20.4 c 1.3,1.5 3.1,2.2 4.9,2.2 1.5,0 3,-0.5 4.2,-1.6 2.7,-2.4 2.9,-6.5 0.6,-9.2 l -18.8,-21.7 z" />
  </g>
</svg>
